<svg width="154" height="52" viewBox="0 0 154 52" fill="none" xmlns="http://www.w3.org/2000/svg">
<path fill-rule="evenodd" clip-rule="evenodd" d="M95.4599 40.0248C86.5798 47.3019 73.6633 51.1791 62.5228 51.1791C46.9154 51.1791 32.9225 44.7967 22.2664 34.1791C21.4591 33.344 22.1587 32.2107 23.1813 32.8669C34.6447 40.2634 48.799 44.6774 63.4377 44.6774C73.2866 44.6774 84.158 42.4107 94.1683 37.6984C95.6752 37.0423 96.913 38.8318 95.4599 40.0248Z" fill="#8ABE49"/>
<path fill-rule="evenodd" clip-rule="evenodd" d="M99.1733 35.3125C98.0431 33.7019 91.6386 34.537 88.7863 34.9546C87.9251 35.0739 87.7637 34.2388 88.571 33.6423C93.6838 29.6458 102.026 30.8388 102.994 32.1511C103.963 33.4633 102.725 42.7686 97.9354 47.1826C97.182 47.8388 96.4823 47.4809 96.8052 46.5862C97.8816 43.6037 100.303 36.9826 99.1733 35.3125Z" fill="#8ABE49"/>
<path fill-rule="evenodd" clip-rule="evenodd" d="M88.9477 5.60701V1.72982C88.9477 1.13333 89.3244 0.775431 89.8088 0.775431H105.416C105.901 0.775431 106.331 1.19298 106.331 1.72982V5.01052C106.331 5.54736 105.901 6.26316 105.147 7.45614L97.0743 20.221C100.088 20.1614 103.264 20.6386 105.954 22.3088C106.546 22.6667 106.708 23.2632 106.762 23.8V27.9158C106.762 28.5123 106.224 29.1684 105.632 28.8105C100.842 26.007 94.4372 25.7088 89.163 28.8702C88.6248 29.1684 88.0328 28.5719 88.0328 27.9754V24.0386C88.0328 23.4421 88.0328 22.3684 88.6248 21.414L97.9893 6.5614H89.8626C89.3783 6.5614 88.9477 6.14386 88.9477 5.60701ZM32.0613 29.6456H27.3252C26.8947 29.586 26.518 29.2281 26.4641 28.7509V1.78947C26.4641 1.25263 26.8947 0.835084 27.3791 0.835084H31.7922C32.2766 0.835084 32.5995 1.25263 32.6533 1.72982V5.24912H32.7609C33.8911 1.84912 36.0977 0.238593 39.0039 0.238593C41.9639 0.238593 43.8476 1.84912 45.1393 5.24912C46.2694 1.84912 48.9066 0.238593 51.7051 0.238593C53.6964 0.238593 55.8492 1.13333 57.1947 3.22105C58.7016 5.48772 58.3787 8.76842 58.3787 11.6912V28.7509C58.3787 29.2877 57.9481 29.7053 57.4638 29.7053H52.7815C52.2971 29.6456 51.9204 29.2281 51.9204 28.7509V14.4351C51.9204 13.3017 52.0281 10.4386 51.8128 9.3649C51.4361 7.57543 50.4135 7.03859 49.0142 7.03859C47.884 7.03859 46.6462 7.87368 46.1618 9.24561C45.6774 10.6175 45.7313 12.8842 45.7313 14.4351V28.7509C45.7313 29.2877 45.3007 29.7053 44.8163 29.7053H40.0803C39.5959 29.6456 39.2192 29.2281 39.2192 28.7509V14.4351C39.2192 11.4526 39.6497 6.97894 36.313 6.97894C32.9224 6.97894 33.03 11.2737 33.03 14.4351V28.7509C32.9762 29.2281 32.5995 29.6456 32.0613 29.6456ZM119.786 0.238593C126.836 0.238593 130.657 6.91929 130.657 15.4491C130.657 23.6807 126.459 30.2421 119.786 30.2421C112.897 30.2421 109.13 23.5614 109.13 15.2105C109.076 6.8 112.897 0.238593 119.786 0.238593ZM119.786 5.78595C116.288 5.78595 116.072 11.0947 116.072 14.3754C116.072 17.6561 116.019 24.6947 119.732 24.6947C123.392 24.6947 123.607 19.0281 123.607 15.5684C123.607 13.3018 123.499 10.5579 122.907 8.41053C122.369 6.50176 121.293 5.78595 119.786 5.78595ZM139.753 29.6456H135.017C134.532 29.586 134.155 29.1684 134.155 28.6912V1.67017C134.209 1.19298 134.586 0.775431 135.07 0.775431H139.484C139.914 0.775431 140.237 1.13334 140.345 1.55088V5.66667H140.452C141.798 1.96842 143.628 0.238593 146.911 0.238593C149.009 0.238593 151.108 1.07367 152.454 3.39999C153.692 5.54736 153.692 9.18596 153.692 11.8105V28.8105C153.638 29.2877 153.261 29.6456 152.777 29.6456H148.041C147.61 29.586 147.233 29.2281 147.18 28.8105V14.1368C147.18 11.1544 147.503 6.85965 144.22 6.85965C143.089 6.85965 142.013 7.69474 141.475 9.00702C140.829 10.6772 140.721 12.2877 140.721 14.1368V28.6912C140.668 29.2281 140.237 29.6456 139.753 29.6456ZM76.5156 16.7614C76.5156 18.7895 76.5694 20.5193 75.6545 22.3684C74.901 23.8596 73.717 24.7544 72.3715 24.7544C70.5417 24.7544 69.4653 23.2035 69.4653 20.9368C69.4653 16.4632 73.0712 15.6281 76.5156 15.6281V16.7614ZM81.3055 29.586C80.9825 29.8842 80.552 29.9439 80.1753 29.7053C78.6145 28.2737 78.2916 27.5579 77.4305 26.186C74.8472 29.1088 72.9635 30.0035 69.6268 30.0035C65.6442 30.0035 62.5227 27.2597 62.5227 21.8316C62.5227 17.5368 64.6216 14.6737 67.5817 13.2421C70.165 11.9895 73.7708 11.7509 76.5156 11.393V10.7368C76.5156 9.48421 76.6232 7.99299 75.9236 6.9193C75.3316 5.96492 74.2552 5.54736 73.2865 5.54736C71.4566 5.54736 69.8421 6.56141 69.4653 8.70878C69.3577 9.18597 69.0886 9.66315 68.6581 9.66315L64.0835 9.12631C63.7067 9.00701 63.2762 8.70877 63.3838 8.05263C64.4602 1.84912 69.4653 0 73.9861 0C76.3003 0 79.3142 0.656137 81.144 2.62456C83.4582 5.01052 83.2429 8.23158 83.2429 11.6912V19.8631C83.2429 22.3088 84.1578 23.3825 85.0189 24.7544C85.3419 25.2316 85.3957 25.8281 85.0189 26.1263C83.9964 27.021 82.2742 28.6912 81.3055 29.586ZM14.3549 16.7614C14.3549 18.7895 14.4087 20.5193 13.4938 22.3684C12.7404 23.8596 11.5563 24.7544 10.2109 24.7544C8.38104 24.7544 7.30467 23.2035 7.30467 20.9368C7.30467 16.4632 10.9105 15.6281 14.3549 15.6281V16.7614ZM19.091 29.586C18.7681 29.8842 18.3375 29.9439 17.9608 29.7053C16.4 28.2737 16.0771 27.5579 15.216 26.186C12.6327 29.1088 10.7491 30.0035 7.4123 30.0035C3.42971 30.0035 0.308228 27.2597 0.308228 21.8316C0.308228 17.5368 2.40716 14.6737 5.36719 13.2421C7.95049 11.9895 11.5563 11.7509 14.3011 11.393V10.7368C14.3011 9.48421 14.4087 7.99299 13.7091 6.9193C13.1171 5.96492 12.0407 5.54736 11.072 5.54736C9.24214 5.54736 7.62757 6.56141 7.25084 8.70878C7.14321 9.18597 6.87411 9.66315 6.44356 9.66315L1.86897 9.12631C1.49224 9.00701 1.06169 8.70877 1.16933 8.05263C2.24571 1.84912 7.25085 0 11.7716 0C14.0858 0 17.0997 0.656137 18.9295 2.62456C21.2437 5.01052 21.0284 8.23158 21.0284 11.6912V19.8631C21.0284 22.3088 21.9434 23.3825 22.8045 24.7544C23.1274 25.2316 23.1812 25.8281 22.8045 26.1263C21.7819 27.021 20.0597 28.6912 19.091 29.586Z" fill="#72954E"/>
</svg>
