<svg width="169" height="78" viewBox="0 0 169 78" fill="none" xmlns="http://www.w3.org/2000/svg">
<path d="M101.18 34.0066H96.98C96.8867 33.68 96.84 33.26 96.7933 32.7933C96.7 31.9066 96.7 31.02 96.7933 30.1333C96.84 29.6666 96.8867 29.2933 96.98 28.92H107.433V62.0533C106.92 62.1466 106.36 62.1933 105.847 62.24C105.333 62.2866 104.773 62.2866 104.26 62.2866C103.747 62.2866 103.233 62.24 102.767 62.24C102.253 62.1933 101.693 62.1466 101.18 62.0533V34.0066ZM137.58 42.3133C137.58 41.1 137.44 39.9333 137.113 38.86C136.787 37.74 136.32 36.8066 135.713 35.9666C135.107 35.1266 134.313 34.4733 133.333 34.0066C132.353 33.4933 131.233 33.26 129.88 33.26C127.267 33.26 125.26 34.0533 123.86 35.64C122.46 37.2266 121.62 39.4666 121.293 42.3133H137.58ZM121.2 47.12C121.293 50.7133 122.227 53.3733 124 55.0533C125.773 56.7333 128.433 57.5733 131.887 57.5733C134.92 57.5733 137.86 57.0133 140.613 55.94C140.94 56.5933 141.22 57.3866 141.453 58.32C141.687 59.2066 141.78 60.14 141.827 61.0733C140.427 61.68 138.84 62.1466 137.16 62.4266C135.48 62.7066 133.567 62.8933 131.513 62.8933C128.48 62.8933 125.913 62.4733 123.767 61.6333C121.62 60.7933 119.847 59.6266 118.447 58.0866C117.047 56.5466 116.02 54.7733 115.367 52.6733C114.713 50.5733 114.387 48.2866 114.387 45.8133C114.387 43.34 114.713 41.0533 115.32 38.9533C115.927 36.8066 116.907 34.9866 118.213 33.4C119.52 31.8133 121.153 30.6 123.067 29.6666C125.027 28.7333 127.36 28.2666 130.02 28.2666C132.307 28.2666 134.313 28.64 136.04 29.4333C137.767 30.2266 139.213 31.2533 140.38 32.6066C141.547 33.96 142.433 35.5933 143.04 37.46C143.647 39.3266 143.927 41.38 143.927 43.5733C143.927 44.18 143.927 44.8333 143.88 45.4866C143.833 46.0466 143.787 46.6066 143.74 47.2133L121.2 47.12ZM150.973 28.9666C151.44 28.8733 151.86 28.8266 152.327 28.78C152.747 28.7333 153.213 28.7333 153.68 28.7333C154.147 28.7333 154.613 28.7333 155.08 28.78C155.547 28.8266 155.967 28.8733 156.387 28.9666C156.527 29.62 156.667 30.46 156.76 31.5333C156.9 32.6066 156.947 33.4933 156.947 34.1933C157.833 32.7466 159.047 31.44 160.54 30.3666C162.033 29.2933 163.947 28.7333 166.233 28.7333C166.56 28.7333 166.933 28.7333 167.307 28.78C167.633 28.78 167.913 28.8266 168.24 28.8733C168.333 29.2466 168.38 29.6666 168.427 30.0866C168.473 30.5066 168.473 30.9733 168.473 31.44C168.473 31.9533 168.427 32.5133 168.38 33.0733C168.333 33.6333 168.24 34.1466 168.147 34.7066C167.82 34.6133 167.447 34.5666 167.073 34.5666H166.187C165.02 34.5666 163.9 34.7066 162.873 35.0333C161.8 35.36 160.867 35.92 160.027 36.76C159.187 37.6 158.533 38.72 158.02 40.12C157.507 41.52 157.273 43.3866 157.273 45.6266V62.1C156.76 62.1933 156.2 62.24 155.687 62.2866C155.127 62.3333 154.567 62.3333 154.1 62.3333C153.587 62.3333 153.027 62.2866 152.513 62.2866C151.953 62.24 151.393 62.1933 150.88 62.1L150.973 28.9666ZM105.66 11.28C105.66 12.0733 105.52 12.82 105.24 13.52C104.493 13.8 103.747 13.94 103 13.94C102.207 13.94 101.46 13.8 100.76 13.52C100.48 12.7733 100.34 12.0266 100.34 11.28C100.34 10.4866 100.48 9.73997 100.76 9.03997C101.507 8.75996 102.253 8.61996 103.047 8.61996C103.84 8.61996 104.587 8.75996 105.287 9.03997C105.52 9.73997 105.66 10.4866 105.66 11.28ZM113.547 9.45996H107.293L111.727 5.02663C111.027 4.04663 110.187 3.20663 109.207 2.50663L104.773 6.93997V0.686632C104.167 0.593299 103.607 0.546631 103 0.546631C102.393 0.546631 101.787 0.593299 101.227 0.686632V6.93997L96.7933 2.50663C96.3267 2.8333 95.86 3.2533 95.44 3.6733C95.02 4.0933 94.6467 4.55996 94.2733 5.02663L98.7067 9.45996H92.4533C92.4533 9.45996 92.3133 10.6266 92.3133 11.2333C92.3133 11.84 92.36 12.4466 92.4533 13.0066H98.7067L94.2733 17.44C94.9733 18.42 95.8133 19.26 96.7933 19.96L101.227 15.5266V21.78C101.787 21.8733 102.393 21.92 103 21.92C103.607 21.92 104.213 21.8733 104.773 21.78V15.5733L109.207 20.0066C109.673 19.68 110.14 19.26 110.56 18.84C110.98 18.42 111.353 17.9533 111.727 17.4866L107.293 13.0533H113.547C113.64 12.4933 113.687 11.8866 113.687 11.28C113.687 10.6733 113.64 10.0666 113.547 9.45996ZM0.146667 61.1666L17.6 34.0533H2.2C2.06 33.26 2.01333 32.42 2.01333 31.4866C2.01333 30.6 2.06 29.76 2.2 28.9666H27.0733L27.4 29.8066L9.85333 57.0133H26.3267C26.4667 57.8533 26.5133 58.74 26.5133 59.6733C26.5133 60.5133 26.4667 61.3533 26.3267 62.1466H0.473334L0.146667 61.1666ZM50.4533 46.5133C49.8 46.42 49.0067 46.3266 47.98 46.2333C47 46.14 46.16 46.0933 45.46 46.0933C42.8 46.0933 40.7467 46.6066 39.3467 47.5866C37.9467 48.5666 37.2467 50.1066 37.2467 52.1133C37.2467 53.42 37.48 54.4 37.9467 55.1466C38.4133 55.8933 39.02 56.4533 39.72 56.8266C40.42 57.2 41.2133 57.4333 42.0533 57.5266C42.8933 57.62 43.7333 57.6666 44.5267 57.6666C45.5067 57.6666 46.5333 57.62 47.6067 57.5266C48.68 57.4333 49.6133 57.2466 50.4067 57.06L50.4533 46.5133ZM50.4533 40.26C50.4533 37.74 49.8 35.9666 48.54 34.9866C47.2333 34.0066 45.3667 33.4933 42.94 33.4933C41.4467 33.4933 40 33.6333 38.6933 33.8666C37.3867 34.1 36.1267 34.4266 34.8667 34.8C34.0267 33.4 33.6533 31.6733 33.6533 29.7133C35.1 29.2466 36.7333 28.8733 38.5067 28.5933C40.28 28.3133 41.96 28.22 43.5933 28.22C47.8867 28.22 51.1533 29.2 53.3933 31.16C55.6333 33.12 56.7533 36.2466 56.7533 40.54V61.26C55.26 61.5866 53.44 61.96 51.2467 62.3333C49.0533 62.7066 46.86 62.8933 44.6667 62.8933C42.5667 62.8933 40.6533 62.7066 38.9733 62.3333C37.2933 61.96 35.8467 61.3066 34.6333 60.4666C33.4667 59.6266 32.5333 58.5066 31.88 57.1533C31.2267 55.8 30.9 54.2133 30.9 52.3C30.9 50.4333 31.2733 48.8466 32.02 47.4466C32.7667 46.0466 33.7933 44.88 35.1 43.9466C36.4067 43.0133 37.8533 42.3133 39.5333 41.8933C41.2133 41.4266 42.9867 41.1933 44.8067 41.1933C46.2067 41.1933 47.3267 41.24 48.2133 41.2866C49.1 41.3333 49.8467 41.4266 50.4533 41.52V40.26ZM70.0533 56.64C70.8467 56.92 71.7333 57.1533 72.5733 57.2933C73.4133 57.4333 74.5333 57.48 75.9333 57.48C77.4733 57.48 78.92 57.2466 80.18 56.7333C81.4867 56.22 82.56 55.4733 83.4933 54.4466C84.4267 53.42 85.1733 52.1133 85.6867 50.5266C86.2467 48.94 86.48 47.0733 86.48 44.9266C86.48 41.4733 85.8267 38.7666 84.5667 36.7133C83.3067 34.7066 81.2067 33.68 78.3133 33.68C77.24 33.68 76.2133 33.8666 75.2333 34.24C74.2533 34.6133 73.3667 35.22 72.5733 35.9666C71.78 36.76 71.1733 37.74 70.7067 38.9066C70.24 40.0733 70.0067 41.52 70.0067 43.1533L70.0533 56.64ZM63.66 28.9666C64.08 28.8733 64.5467 28.8266 64.9667 28.78C65.4333 28.7333 65.9 28.7333 66.3667 28.7333C66.7867 28.7333 67.2533 28.7333 67.72 28.78C68.1867 28.8266 68.6533 28.8733 69.0733 28.9666C69.12 29.06 69.1667 29.34 69.2133 29.76C69.26 30.2266 69.3533 30.6933 69.4 31.2066C69.4467 31.72 69.54 32.2333 69.5867 32.7C69.6333 33.1666 69.68 33.4933 69.68 33.5866C70.1 32.8866 70.6133 32.2333 71.22 31.58C71.8267 30.9266 72.5267 30.3666 73.3667 29.8533C74.2067 29.34 75.14 28.92 76.2133 28.64C77.2867 28.36 78.4533 28.1733 79.7133 28.1733C81.6267 28.1733 83.4467 28.5 85.1267 29.1533C86.76 29.8066 88.2067 30.7866 89.3733 32.14C90.54 33.4933 91.4733 35.22 92.1267 37.32C92.78 39.42 93.1067 41.8933 93.1067 44.6933C93.1067 50.3866 91.5667 54.82 88.4867 58.04C85.4067 61.26 81.0667 62.8466 75.42 62.8466C74.4867 62.8466 73.5067 62.8 72.5267 62.66C71.5467 62.52 70.66 62.38 69.96 62.1466V77.3133C69.4 77.4066 68.8867 77.4533 68.3267 77.5C67.7667 77.5466 67.2067 77.5466 66.74 77.5466C66.2267 77.5466 65.6667 77.5 65.1533 77.5C64.64 77.4533 64.08 77.4066 63.5667 77.3133L63.66 28.9666Z" fill="#ABABAB"/>
</svg>
