<svg width="224" height="32" viewBox="0 0 224 32" fill="none" xmlns="http://www.w3.org/2000/svg">
<path d="M145.83 10.2767H139.03L141.693 14.0733H145.15L142.26 30.5067H148.267L151.157 14.0733H158.637L146.793 4.55334L145.83 10.2767ZM28.2468 0.983337H0.933444L0.196777 5.29001H10.7934L6.37344 30.5633H12.3801L16.8001 5.29001H27.5101L28.2468 0.983337ZM35.8401 18.2667H25.3568C25.9801 16.17 28.0201 13.3367 31.7034 13.3367C35.7268 13.3367 36.1801 16.3967 35.8401 18.2667ZM32.7234 9.82334C25.0734 9.82334 20.2001 14.64 19.1801 20.25C18.1034 26.4833 21.9001 31.0167 29.6634 31.0167C33.1201 31.0167 36.3501 30.3933 38.9568 28.92L39.7501 24.2733C37.2001 26.0867 33.9134 27.1067 31.1934 27.1067C27.3401 27.1067 24.2801 25.52 24.7901 21.8367H40.7134C40.8834 21.3833 41.1101 20.6467 41.2801 19.6833C42.0168 15.2633 40.4301 9.82334 32.7234 9.82334ZM59.3001 9.82334C55.5601 9.82334 52.7268 11.3533 51.4234 12.94H51.3101L46.0401 9.82334C45.8701 11.58 45.5868 13.96 45.1901 16.2833L42.6968 30.5067H48.7034L50.8001 18.6067C50.9134 18.04 51.0834 17.4167 51.3668 16.9633C52.2734 15.3767 54.1434 13.96 56.5234 13.96C59.8101 13.96 60.7168 16.17 60.2068 19.06L58.2234 30.5067H64.2301L66.3268 18.4933C67.3468 12.1467 63.4368 9.82334 59.3001 9.82334ZM131.437 9.82334C127.697 9.82334 124.863 11.3533 123.56 12.94H123.447L118.177 9.82334C118.007 11.58 117.723 13.96 117.327 16.2833L114.833 30.5067H120.84L122.937 18.6067C123.05 18.04 123.22 17.4167 123.503 16.9633C124.41 15.3767 126.28 13.96 128.66 13.96C131.947 13.96 132.853 16.17 132.343 19.06L130.36 30.5067H136.367L138.463 18.4933C139.54 12.1467 135.63 9.82334 131.437 9.82334ZM107.977 18.2667H97.4934C98.1168 16.17 100.157 13.3367 103.84 13.3367C107.92 13.3367 108.373 16.3967 107.977 18.2667ZM104.86 9.82334C97.2101 9.82334 92.3368 14.64 91.3735 20.25C90.2968 26.4833 94.0935 31.0167 101.857 31.0167C105.313 31.0167 108.543 30.3933 111.15 28.92L111.943 24.2733C109.393 26.0867 106.107 27.1067 103.387 27.1067C99.5334 27.1067 96.4734 25.52 96.9834 21.8367H112.907C113.077 21.3833 113.303 20.6467 113.473 19.6833C114.21 15.2633 112.623 9.82334 104.86 9.82334ZM68.7634 20.1367C67.6868 26.4267 72.0501 30.96 79.5301 30.96C82.4768 30.96 86.0468 30.11 87.3501 29.6L88.3134 24.16C86.2168 26.4267 83.3834 26.88 81.4001 26.88C77.3201 26.88 74.2034 24.5 74.9401 20.3633C75.5634 16.6233 79.0768 13.79 83.6668 13.79C85.5368 13.79 88.0868 14.4133 89.6734 16.51L90.5801 11.0133C89.2768 10.5033 87.2368 9.82334 84.1768 9.82334C75.7901 9.88001 69.8401 14.0733 68.7634 20.1367ZM186.063 14.64C185.497 14.0167 184.873 12.94 184.533 12.2033H183.287C182.607 13.0533 181.587 13.96 180.737 14.64H186.063ZM184.817 17.1333H177.507L179.717 18.1533L179.32 20.1367H184.193C184.137 20.1367 184.817 17.1333 184.817 17.1333ZM188.33 16.68L187.537 20.1367H189.18C190.313 20.1367 191.107 20.3633 190.88 21.7233C190.483 24.2167 189.86 27.6733 189.293 30.5633H180.397L179.66 27.9H186.233C186.517 26.4833 186.913 24.7833 187.083 23.3667C187.14 22.9133 186.97 22.7433 186.46 22.7433H175.353L176.373 17.36C175.58 17.7567 174.39 18.1533 173.2 18.38L173.88 15.15C175.977 14.64 178.073 13.62 179.377 12.2033H174.39L174.957 9.65334H181.133C181.473 9.20001 181.757 8.57667 181.87 8.12334H175.24L175.75 5.46H178.13L177.28 1.55H180.68L181.473 5.46H182.663C183.06 4.15667 183.287 2.4 183.343 0.983337H186.8C186.743 2.4 186.517 4.15667 186.177 5.46H187.537C188.047 4.27 188.613 2.79667 189.067 1.55H192.523C192.07 2.74 191.447 4.21333 190.88 5.46H193.317L192.693 8.12334H185.497C185.383 8.57667 185.1 9.20001 184.873 9.65334H193.6L192.977 12.2033H187.82C188.897 13.8467 191.56 15.0933 193.6 15.5467L192.467 18.4367C191.107 18.0967 189.52 17.4167 188.33 16.68ZM184.533 26.6533H173.2L172.747 24.0467H185.1V24.1033L184.533 26.6533ZM171.16 4.61H169.46C169.177 6.19667 168.95 7.89667 168.61 9.65334H170.877L171.727 5.29001C171.84 4.78001 171.67 4.61 171.16 4.61ZM170.48 12.3167H168.157C167.817 14.0733 167.477 15.8867 167.08 17.7H169.517L170.48 12.3167ZM175.127 3.70334C173.483 12.7133 172.01 21.61 170.31 30.62H166.91C167.59 27.22 168.327 23.65 168.893 20.3067H166.457C165.72 23.7633 164.927 27.2767 164.19 30.62H160.79C163.623 21.5533 165.04 12.2033 166.627 1.89H172.973C174.787 1.83334 175.41 2.11667 175.127 3.70334ZM221.65 1.89H206.01L206.69 4.89333H218.363C219.157 4.89333 219.497 5.00667 219.327 5.85667C218.873 8.29334 218.42 10.73 217.967 13.11H212.867L213.717 8.01L210.147 5.91334L208.843 13.11H205.047L204.537 16.1133H208.277C207.483 20.93 206.577 25.86 205.613 30.6767H209.693C210.657 25.8033 211.563 20.9867 212.357 16.1133H217.4C216.55 20.9867 215.643 25.9733 214.68 30.6767H221.877L223.123 27.6733H219.327C220.857 20.0233 222.387 11.9767 223.747 4.27001C224.03 2.51334 223.69 1.89 221.65 1.89ZM204.48 8.06667C203.97 5.74334 203.347 3.25 202.78 0.983337H198.983C199.493 3.30667 200.003 5.8 200.457 8.06667H204.48ZM196.207 9.59667H203.233C202.553 14.3 201.703 19.06 200.797 23.82C202.157 22.8 203.517 21.7233 204.82 20.6467L204.083 24.9533C201.703 26.9367 198.417 29.3167 195.413 31.0167C196.717 24.9533 197.907 18.4933 198.813 12.6H195.64L196.207 9.59667Z" fill="#ABABAB"/>
</svg>
