<svg width="194" height="47" viewBox="0 0 194 47" fill="none" xmlns="http://www.w3.org/2000/svg">
<path d="M193.755 0.830513V4.06052C192.739 3.94114 191.611 3.87388 190.34 3.87388C178.471 3.87388 178.742 9.3671 178.742 16.2172V38.5281H175.352V16.2172C175.352 7.12913 175.962 0.687595 190.34 0.687595C191.578 0.687595 192.708 0.738048 193.755 0.830513ZM49.5719 23.7431C49.5719 30.5933 49.8426 36.0865 37.9751 36.0865C26.0404 36.0865 26.1076 30.5933 26.1076 24.0828V1.43229H22.6489V24.0155C22.6489 32.8312 23.53 39.2745 37.9751 39.2745C52.3513 39.2745 52.9633 32.8312 52.9633 23.7431V1.43229H49.5719V23.7431H49.5719ZM73.6876 0.687538C59.3114 0.687538 58.701 7.1291 58.701 16.2172V38.528H62.0908V16.2172C62.0908 9.36707 61.8184 3.87385 73.6876 3.87385C85.6224 3.87385 85.5551 9.36707 85.5551 15.8775V38.5281H89.0138V15.9448C89.0138 7.1291 88.1327 0.687538 73.6876 0.687538ZM95.3077 38.5198H98.6269V1.49311H95.3077V38.5198ZM134.67 13.3694C134.67 21.0148 130.822 25.6623 122.129 25.6623H108.162V38.5286H104.843V1.5019H122.177C130.772 1.5019 134.67 5.77439 134.67 13.3694ZM131.192 13.5174C131.192 7.62397 127.981 4.82438 122.079 4.82438H108.162V22.3331H122.227C128.216 22.3331 131.192 19.4141 131.192 13.5174ZM170.476 20.4879H141.858C141.926 29.5087 144.162 36.2227 155.895 36.2227C162.135 36.2227 164.983 34.5261 168.035 32.2898L169.931 34.7985C166.542 37.3072 162.542 39.2744 155.895 39.2744C141.248 39.2744 138.534 30.7967 138.534 19.8792C138.534 8.96169 141.655 0.551208 155.626 0.551208C170.069 0.551218 170.543 10.248 170.476 20.4879ZM167.152 17.3688C166.814 9.9773 166.338 3.67026 155.555 3.67026C145.181 3.67026 142.333 9.29969 141.926 17.3688H167.152ZM13.4229 31.0329C13.4229 37.8814 13.6937 43.3763 1.82614 43.3763C1.37719 43.3763 0.951809 43.3645 0.536499 43.3477V46.5458C0.953489 46.5558 1.38226 46.5626 1.82614 46.5626C16.2023 46.5626 16.8144 40.121 16.8144 31.0329V1.43311H13.4229V31.0329Z" fill="#ABABAB"/>
</svg>
