<svg width="161" height="65" viewBox="0 0 161 65" fill="none" xmlns="http://www.w3.org/2000/svg">
<path d="M0.818237 0.677734V5.04806H31.9029V0.677734H0.818237ZM36.3073 0.677734V5.04806H80.6042C80.6042 5.04806 76.0799 0.677734 70.087 0.677734H36.3073ZM89.2945 0.677734V5.04806H116.094L114.502 0.677734H89.2945ZM135.307 0.677734L133.716 5.04806H160.272V0.677734H135.307ZM0.818237 9.17713V13.547H31.9029V9.17713H0.818237ZM36.3073 9.18273V13.547H85.745C85.745 13.547 85.1678 10.1833 84.1602 9.18273H36.3073ZM89.2945 9.18273V13.547H119.031L117.56 9.18273H89.2945ZM132.126 9.18273L130.654 13.547H160.273V9.18273H132.126ZM9.75164 17.6761V22.0529H23.2136V17.6761H9.75164ZM45.2402 17.6761V22.0529H58.7022V17.6761H45.2402ZM71.7964 17.6761V22.0529H85.2583C85.2583 22.0529 86.1133 19.7411 86.1133 17.6761H71.7964ZM98.2274 17.6761V22.0529H122.095L120.504 17.6761H98.2274ZM129.193 17.6761L127.596 22.0529H151.582V17.6761H129.193ZM9.75164 26.182V30.5528H23.2136V26.182H9.75164ZM45.2402 26.182V30.5528H79.6256C79.6256 30.5528 82.5012 28.3095 83.4187 26.182H45.2402ZM98.2274 26.182V30.5528H111.69V28.1191L112.544 30.5528H137.204L138.121 28.1191V30.5528H151.583V26.182H126.313L124.972 29.8845L123.624 26.182H98.2274ZM9.75164 34.6809V39.0527H23.2136V34.6809H9.75164ZM45.2402 34.6809V39.0527H83.4187C82.5008 36.9312 79.6256 34.6809 79.6256 34.6809H45.2402ZM98.2274 34.6809V39.0527H111.69V34.6809H98.2274ZM114.135 34.6809L115.763 39.0527H134.252L135.799 34.6809H114.135ZM138.12 34.6809V39.0527H151.583V34.6809H138.12ZM9.75164 43.1813V47.5521H23.2136V43.1813H9.75164ZM45.2402 43.1813V47.5521H58.7022V43.1813H45.2402ZM71.7964 43.1813V47.5521H86.1128C86.1128 45.4894 85.2583 43.1813 85.2583 43.1813H71.7964ZM98.2274 43.1813V47.5521H111.69V43.1813H98.2274ZM117.191 43.1813L118.77 47.5521H131.166L132.756 43.1813H117.191ZM138.12 43.1813V47.5521H151.583V43.1813H138.12ZM1.06137 51.6807V56.0566H32.1465V51.6807H1.06137ZM36.3073 51.6807V56.0566H84.1607C85.1678 55.0551 85.7455 51.6807 85.7455 51.6807H36.3073ZM89.5381 51.6807V56.0566H111.69V51.6807H89.5381ZM120.255 51.6807L121.877 56.0566H128.184L129.706 51.6807H120.255ZM138.12 51.6807V56.0566H160.515V51.6807H138.12ZM1.06137 60.1857V64.5565H32.1465V60.1857H1.06137ZM36.3073 60.1857V64.5495H70.087C76.0799 64.5495 80.6042 60.1857 80.6042 60.1857H36.3073ZM89.5381 60.1857V64.5565H111.69V60.1857H89.5381ZM123.33 60.1857L124.89 64.5429L125.158 64.5495L126.743 60.1857H123.33ZM138.12 60.1857V64.5565H160.515V60.1857H138.12Z" fill="#ABABAB"/>
</svg>
