<svg width="91" height="90" viewBox="0 0 91 90" fill="none" xmlns="http://www.w3.org/2000/svg">
<rect x="0.730957" width="90" height="90" rx="10" fill="white"/>
<path opacity="0.2" d="M64.75 51.25V60.625C64.75 61.0394 64.5854 61.4368 64.2924 61.7299C63.9993 62.0229 63.6019 62.1875 63.1875 62.1875H28.8125C28.3981 62.1875 28.0007 62.0229 27.7076 61.7299C27.4146 61.4368 27.25 61.0394 27.25 60.625V51.25" fill="#555759"/>
<path d="M63.1875 34.0625H28.8125C27.9496 34.0625 27.25 34.7621 27.25 35.625V60.625C27.25 61.4879 27.9496 62.1875 28.8125 62.1875H63.1875C64.0504 62.1875 64.75 61.4879 64.75 60.625V35.625C64.75 34.7621 64.0504 34.0625 63.1875 34.0625Z" stroke="#1DD3B0" stroke-width="2" stroke-linecap="round" stroke-linejoin="round"/>
<path d="M53.8125 34.0625V30.9375C53.8125 30.1087 53.4833 29.3138 52.8972 28.7278C52.3112 28.1417 51.5163 27.8125 50.6875 27.8125H41.3125C40.4837 27.8125 39.6888 28.1417 39.1028 28.7278C38.5167 29.3138 38.1875 30.1087 38.1875 30.9375V34.0625" stroke="#1DD3B0  " stroke-width="2" stroke-linecap="round" stroke-linejoin="round"/>
<path d="M27.25 51.25H64.75" stroke="#1DD3B0" stroke-width="2" stroke-linecap="round" stroke-linejoin="round"/>
</svg>
