<svg width="215" height="34" viewBox="0 0 215 34" fill="none" xmlns="http://www.w3.org/2000/svg">
<path d="M40.0641 14.1023H38.1641C38.566 13.4294 38.8097 12.6586 38.834 11.8266C38.8827 10.5664 38.3103 9.39189 37.4212 8.51098C35.5455 6.62681 34.084 6.60234 32.7686 6.93269C31.782 6.08848 30.5154 5.56238 29.1026 5.56238C26.8006 5.56238 24.8275 6.92045 23.902 8.87803C21.9775 9.52647 20.5769 11.3372 20.5769 13.4906C20.5769 15.7663 22.1358 17.6627 24.2308 18.2132V26.3372C24.2308 27.683 25.3269 28.7841 26.6666 28.7841H35.1923C36.532 28.7841 37.6281 27.683 37.6281 26.3372H40.0641C41.4038 26.3372 42.5 25.236 42.5 23.8901V16.5492C42.5 15.2034 41.4038 14.1023 40.0641 14.1023ZM25.4488 15.9375C24.1089 15.9375 23.0127 14.8364 23.0127 13.4906C23.0127 12.4506 23.6826 11.533 24.6814 11.1904L25.6558 10.8601L26.0943 9.93022C26.6666 8.74345 27.8115 8.00936 29.1026 8.00936C30.0648 8.00936 30.7955 8.43757 31.2218 8.80462L32.1718 9.59988C32.1718 9.59988 32.9512 9.20837 33.9621 9.20837C35.302 9.20837 36.3981 10.3095 36.3981 11.6553H32.7443C28.7006 11.6553 28.0674 15.9375 25.4488 15.9375ZM40.0641 23.8901H37.6281V16.5492H40.0641V23.8901Z" fill="#6C757D"/>
<path d="M14.5485 31.5203L14.8483 29.8714C14.2583 29.8523 13.7683 29.6899 13.3782 29.384C12.9976 29.0782 12.6931 28.6862 12.4647 28.2082C12.2268 27.74 12.0603 27.2094 11.9652 26.6169C11.87 26.0338 11.8224 25.4459 11.8224 24.8532V22.4302C11.8129 21.2928 11.5465 20.2938 11.0232 19.4336C10.4998 18.5638 9.68626 17.909 8.58249 17.4693C9.68626 17.0201 10.4998 16.3654 11.0232 15.5051C11.556 14.6353 11.8224 13.6268 11.8224 12.4798V10.0424C11.8224 9.45934 11.851 8.8715 11.9081 8.27886C11.9652 7.68624 12.0984 7.15097 12.3077 6.67304C12.5075 6.20468 12.8073 5.81756 13.2069 5.51169C13.616 5.20582 14.1632 5.04333 14.8483 5.02421L14.5485 3.37537C13.5875 3.40405 12.7692 3.61432 12.0936 4.00624C11.418 4.38857 10.8709 4.88562 10.4522 5.49735C10.005 6.13777 9.67675 6.86421 9.46741 7.67669C9.2676 8.4796 9.16768 9.26817 9.16768 10.0424V12.4798C9.16768 13.8658 8.83941 14.8694 8.18286 15.4907C7.53581 16.1025 6.54148 16.4084 5.19983 16.4084V18.4873C6.54148 18.4969 7.53581 18.8123 8.18286 19.4336C8.83941 20.0549 9.16768 21.0537 9.16768 22.4302V24.8532C9.16768 25.6179 9.27711 26.3874 9.49595 27.1616C9.71481 27.9455 10.0383 28.6527 10.4665 29.2836C10.9137 29.9432 11.4751 30.4737 12.1507 30.8751C12.8263 31.2766 13.6256 31.4917 14.5485 31.5203ZM46.4648 29.8714L46.7646 31.5203C47.6971 31.5011 48.5011 31.2862 49.1766 30.8751C49.8523 30.4641 50.4137 29.9384 50.8609 29.2979C51.2986 28.6575 51.6222 27.9455 51.8314 27.1616C52.0408 26.3874 52.1454 25.6179 52.1454 24.8532V22.4302C52.1454 21.7611 52.2216 21.1827 52.3739 20.6953C52.526 20.2079 52.7592 19.8016 53.0732 19.4766C53.3966 19.1421 53.8106 18.8984 54.3149 18.7454C54.8288 18.583 55.4282 18.4969 56.1132 18.4873V16.4084C55.3331 16.4084 54.6622 16.3079 54.1008 16.1073C53.5489 15.897 53.116 15.5672 52.802 15.118C52.5831 14.8025 52.4166 14.4297 52.3025 13.9996C52.1977 13.5599 52.1454 13.0533 52.1454 12.4798V10.0424C52.1454 9.2395 52.036 8.42702 51.8172 7.605C51.6079 6.78297 51.2605 6.04219 50.7752 5.38265C50.3471 4.79958 49.8 4.32644 49.1339 3.96321C48.4774 3.6 47.6876 3.40405 46.7646 3.37537L46.4791 5.02421C47.1642 5.04333 47.7066 5.20582 48.1062 5.51169C48.5059 5.81756 48.8103 6.20468 49.0197 6.67304C49.2196 7.15097 49.348 7.68624 49.4051 8.27886C49.4717 8.8715 49.5049 9.45934 49.5049 10.0424V12.4798C49.5049 13.2254 49.6143 13.9184 49.8332 14.5588C50.0522 15.1896 50.3899 15.744 50.8466 16.222C51.0845 16.4801 51.3605 16.7142 51.6745 16.9246C51.998 17.1347 52.35 17.3165 52.7306 17.4693C52.3596 17.6223 52.0169 17.7991 51.7029 17.9999C51.3985 18.2006 51.1226 18.4252 50.8751 18.6737C50.4089 19.1421 50.0616 19.6965 49.8332 20.3369C49.6143 20.9774 49.5049 21.6751 49.5049 22.4302V24.8532C49.5049 25.4459 49.4526 26.0338 49.348 26.6169C49.2528 27.2094 49.0911 27.74 48.8626 28.2082C48.6248 28.6862 48.3108 29.0782 47.9206 29.384C47.5306 29.6899 47.0452 29.8523 46.4648 29.8714Z" fill="#6C757D"/>
<path d="M62.862 24V10.32H64.876V18.528L68.486 14.576H71.013L67.08 18.756V18.908L71.526 24H69.075L64.876 19.155V24H62.862ZM78.0926 24.228C77.1932 24.228 76.3889 24.0253 75.6796 23.62C74.9702 23.2147 74.4129 22.6447 74.0076 21.91C73.6022 21.1627 73.3996 20.2887 73.3996 19.288C73.3996 18.2873 73.6022 17.4197 74.0076 16.685C74.4129 15.9377 74.9702 15.3613 75.6796 14.956C76.3889 14.5507 77.1996 14.348 78.1116 14.348C79.0236 14.348 79.8279 14.5507 80.5246 14.956C81.2339 15.3613 81.7849 15.9377 82.1776 16.685C82.5829 17.4197 82.7856 18.2873 82.7856 19.288C82.7856 20.2887 82.5829 21.1627 82.1776 21.91C81.7722 22.6447 81.2149 23.2147 80.5056 23.62C79.8089 24.0253 79.0046 24.228 78.0926 24.228ZM78.0926 22.309C78.5739 22.309 79.0172 22.2013 79.4226 21.986C79.8279 21.7707 80.1509 21.4413 80.3916 20.998C80.6449 20.542 80.7716 19.972 80.7716 19.288C80.7716 18.5913 80.6449 18.0213 80.3916 17.578C80.1509 17.1347 79.8279 16.8053 79.4226 16.59C79.0299 16.3747 78.5929 16.267 78.1116 16.267C77.6302 16.267 77.1869 16.3747 76.7816 16.59C76.3762 16.8053 76.0469 17.1347 75.7936 17.578C75.5529 18.0213 75.4326 18.5913 75.4326 19.288C75.4326 20.3267 75.6922 21.093 76.2116 21.587C76.7436 22.0683 77.3706 22.309 78.0926 22.309ZM88.9722 24.228C88.1868 24.228 87.4838 24.0443 86.8632 23.677C86.2425 23.297 85.7485 22.7397 85.3812 22.005C85.0265 21.2703 84.8492 20.3647 84.8492 19.288C84.8492 18.2113 85.0328 17.3057 85.4002 16.571C85.7675 15.8363 86.2615 15.2853 86.8822 14.918C87.5155 14.538 88.2185 14.348 88.9912 14.348C89.7132 14.348 90.3085 14.4873 90.7772 14.766C91.2458 15.032 91.5942 15.374 91.8222 15.792V10.32H93.8362V24H92.1072L91.9362 22.613H91.8222C91.5688 23.107 91.2078 23.4997 90.7392 23.791C90.2832 24.0823 89.6942 24.228 88.9722 24.228ZM89.3902 22.309C90.1122 22.309 90.7075 22.0557 91.1762 21.549C91.6575 21.0423 91.8982 20.2887 91.8982 19.288C91.8982 18.2747 91.6575 17.521 91.1762 17.027C90.7075 16.5203 90.1122 16.267 89.3902 16.267C88.6682 16.267 88.0665 16.5203 87.5852 17.027C87.1165 17.5337 86.8822 18.2937 86.8822 19.307C86.8822 20.3077 87.1165 21.0613 87.5852 21.568C88.0665 22.062 88.6682 22.309 89.3902 22.309ZM100.992 24.228C100.08 24.228 99.2754 24.0253 98.5787 23.62C97.8821 23.202 97.3374 22.6257 96.9447 21.891C96.5521 21.1563 96.3557 20.3013 96.3557 19.326C96.3557 18.338 96.5457 17.4703 96.9257 16.723C97.3184 15.9757 97.8631 15.393 98.5597 14.975C99.2691 14.557 100.086 14.348 101.011 14.348C101.923 14.348 102.708 14.557 103.367 14.975C104.025 15.3803 104.532 15.925 104.887 16.609C105.254 17.293 105.438 18.0467 105.438 18.87C105.438 18.9967 105.438 19.136 105.438 19.288C105.438 19.4273 105.431 19.5857 105.419 19.763H98.3317C98.3951 20.637 98.6801 21.302 99.1867 21.758C99.6934 22.2013 100.289 22.423 100.973 22.423C101.568 22.423 102.037 22.3027 102.379 22.062C102.733 21.8087 102.993 21.4667 103.158 21.036H105.191C104.963 21.9353 104.488 22.6953 103.766 23.316C103.044 23.924 102.119 24.228 100.992 24.228ZM100.992 16.096C100.371 16.096 99.8201 16.286 99.3387 16.666C98.8574 17.0333 98.5471 17.5527 98.4077 18.224H103.424C103.373 17.5907 103.126 17.0777 102.683 16.685C102.239 16.2923 101.676 16.096 100.992 16.096ZM112.783 24.228C112.087 24.228 111.498 24.0887 111.016 23.81C110.548 23.5187 110.187 23.1197 109.933 22.613H109.819L109.648 24H107.919V10.32H109.933V15.792C110.161 15.412 110.522 15.0763 111.016 14.785C111.51 14.4937 112.099 14.348 112.783 14.348C113.569 14.348 114.272 14.538 114.892 14.918C115.513 15.2853 116.001 15.8363 116.355 16.571C116.723 17.3057 116.906 18.2113 116.906 19.288C116.906 20.3647 116.723 21.2703 116.355 22.005C116.001 22.7397 115.513 23.297 114.892 23.677C114.272 24.0443 113.569 24.228 112.783 24.228ZM112.365 22.309C113.087 22.309 113.683 22.062 114.151 21.568C114.633 21.0613 114.873 20.3077 114.873 19.307C114.873 18.2937 114.633 17.5337 114.151 17.027C113.683 16.5203 113.087 16.267 112.365 16.267C111.643 16.267 111.042 16.5203 110.56 17.027C110.092 17.521 109.857 18.2747 109.857 19.288C109.857 20.2887 110.092 21.0423 110.56 21.549C111.042 22.0557 111.643 22.309 112.365 22.309ZM119.426 24V22.252H121.725V16.951C121.725 16.533 121.522 16.324 121.117 16.324H119.616V14.576H121.877C122.396 14.576 122.821 14.728 123.15 15.032C123.479 15.3233 123.644 15.735 123.644 16.267V16.495H123.739C123.878 15.7857 124.176 15.2537 124.632 14.899C125.101 14.5317 125.778 14.348 126.665 14.348H128.128V16.476H126.076C125.329 16.476 124.752 16.7357 124.347 17.255C123.942 17.7743 123.739 18.395 123.739 19.117V22.252H126.665V24H119.426ZM135.169 24.228C134.257 24.228 133.453 24.0253 132.756 23.62C132.06 23.202 131.515 22.6257 131.122 21.891C130.73 21.1563 130.533 20.3013 130.533 19.326C130.533 18.338 130.723 17.4703 131.103 16.723C131.496 15.9757 132.041 15.393 132.737 14.975C133.447 14.557 134.264 14.348 135.188 14.348C136.1 14.348 136.886 14.557 137.544 14.975C138.203 15.3803 138.71 15.925 139.064 16.609C139.432 17.293 139.615 18.0467 139.615 18.87C139.615 18.9967 139.615 19.136 139.615 19.288C139.615 19.4273 139.609 19.5857 139.596 19.763H132.509C132.573 20.637 132.858 21.302 133.364 21.758C133.871 22.2013 134.466 22.423 135.15 22.423C135.746 22.423 136.214 22.3027 136.556 22.062C136.911 21.8087 137.171 21.4667 137.335 21.036H139.368C139.14 21.9353 138.665 22.6953 137.943 23.316C137.221 23.924 136.297 24.228 135.169 24.228ZM135.169 16.096C134.549 16.096 133.998 16.286 133.516 16.666C133.035 17.0333 132.725 17.5527 132.585 18.224H137.601C137.551 17.5907 137.304 17.0777 136.86 16.685C136.417 16.2923 135.853 16.096 135.169 16.096ZM142.952 24L140.9 14.576H142.876L144.016 21.188L145.365 14.576H147.531L148.88 21.188L150.02 14.576H151.996L149.944 24H147.873L146.448 17.198L145.023 24H142.952ZM153.433 24V22.252H156.587V12.695C156.587 12.277 156.384 12.068 155.979 12.068H153.699V10.32H156.34C157.074 10.32 157.632 10.5163 158.012 10.909C158.404 11.289 158.601 11.8463 158.601 12.581V22.252H161.774V24H153.433ZM168.378 24.228C167.631 24.228 167.004 24.1013 166.497 23.848C165.991 23.582 165.611 23.2337 165.357 22.803C165.104 22.3597 164.977 21.8783 164.977 21.359C164.977 20.4343 165.313 19.7123 165.984 19.193C166.668 18.6737 167.631 18.414 168.872 18.414H171.304V18.205C171.304 16.7863 170.646 16.077 169.328 16.077C168.784 16.077 168.321 16.1973 167.941 16.438C167.574 16.666 167.327 17.0397 167.2 17.559H165.186C165.288 16.571 165.712 15.792 166.459 15.222C167.219 14.6393 168.176 14.348 169.328 14.348C170.722 14.348 171.735 14.69 172.368 15.374C173.002 16.058 173.318 17.0017 173.318 18.205V24H171.608L171.437 22.613H171.304C171.026 23.0563 170.677 23.4363 170.259 23.753C169.841 24.0697 169.214 24.228 168.378 24.228ZM168.758 22.537C169.582 22.537 170.196 22.29 170.601 21.796C171.019 21.2893 171.247 20.6497 171.285 19.877H169.081C168.359 19.877 167.846 19.9973 167.542 20.238C167.251 20.466 167.105 20.789 167.105 21.207C167.105 21.625 167.251 21.9543 167.542 22.195C167.846 22.423 168.252 22.537 168.758 22.537ZM181.139 24.228C180.442 24.228 179.853 24.0887 179.372 23.81C178.903 23.5187 178.542 23.1197 178.289 22.613H178.175L178.004 24H176.275V10.32H178.289V15.792C178.517 15.412 178.878 15.0763 179.372 14.785C179.866 14.4937 180.455 14.348 181.139 14.348C181.924 14.348 182.627 14.538 183.248 14.918C183.868 15.2853 184.356 15.8363 184.711 16.571C185.078 17.3057 185.262 18.2113 185.262 19.288C185.262 20.3647 185.078 21.2703 184.711 22.005C184.356 22.7397 183.868 23.297 183.248 23.677C182.627 24.0443 181.924 24.228 181.139 24.228ZM180.721 22.309C181.443 22.309 182.038 22.062 182.507 21.568C182.988 21.0613 183.229 20.3077 183.229 19.307C183.229 18.2937 182.988 17.5337 182.507 17.027C182.038 16.5203 181.443 16.267 180.721 16.267C179.999 16.267 179.397 16.5203 178.916 17.027C178.447 17.521 178.213 18.2747 178.213 19.288C178.213 20.2887 178.447 21.0423 178.916 21.549C179.397 22.0557 179.999 22.309 180.721 22.309ZM192.094 24.228C190.853 24.228 189.865 23.9367 189.13 23.354C188.396 22.7713 187.978 21.9987 187.876 21.036H189.947C190.023 21.4793 190.245 21.8403 190.612 22.119C190.992 22.3977 191.493 22.537 192.113 22.537C192.709 22.537 193.165 22.4167 193.481 22.176C193.811 21.9227 193.975 21.6313 193.975 21.302C193.975 20.8207 193.779 20.4913 193.386 20.314C193.006 20.1367 192.443 20.0037 191.695 19.915C191.049 19.839 190.46 19.6933 189.928 19.478C189.409 19.25 188.997 18.946 188.693 18.566C188.389 18.1733 188.237 17.6857 188.237 17.103C188.237 16.2797 188.56 15.6147 189.206 15.108C189.852 14.6013 190.752 14.348 191.904 14.348C193.057 14.348 193.95 14.6077 194.583 15.127C195.217 15.6463 195.584 16.3557 195.685 17.255H193.747C193.697 16.875 193.5 16.5773 193.158 16.362C192.816 16.134 192.392 16.02 191.885 16.02C191.366 16.02 190.954 16.1213 190.65 16.324C190.346 16.514 190.194 16.7673 190.194 17.084C190.194 17.768 190.929 18.186 192.398 18.338C193.095 18.414 193.716 18.547 194.26 18.737C194.805 18.9143 195.236 19.1993 195.552 19.592C195.869 19.972 196.027 20.5103 196.027 21.207C196.04 21.777 195.875 22.29 195.533 22.746C195.204 23.202 194.742 23.563 194.146 23.829C193.564 24.095 192.88 24.228 192.094 24.228Z" fill="#6C757D"/>
</svg>
