<svg width="94" height="94" viewBox="0 0 94 94" fill="none" xmlns="http://www.w3.org/2000/svg">
<path fill-rule="evenodd" clip-rule="evenodd" d="M47.0426 0.69281C72.6035 0.69281 93.3241 21.4186 93.3241 46.9831C93.3241 72.5476 72.6035 93.2731 47.0426 93.2731C21.483 93.2731 0.76239 72.5476 0.76239 46.9831C0.76239 21.4186 21.483 0.69281 47.0426 0.69281Z" fill="#ABABAB"/>
<path fill-rule="evenodd" clip-rule="evenodd" d="M24.9749 31.152C25.3285 26.2207 34.9167 25.2457 36.0707 31.152V49.6081C36.0707 73.2445 -1.59538 62.8246 13.6757 50.6944C17.2494 55.653 24.1085 55.3228 24.8393 50.4284L24.9749 31.152ZM67.689 34.8642C75.8304 34.8642 82.4275 41.2984 82.4275 49.2376C82.4275 57.1776 75.8304 63.6118 67.689 63.6118C59.5508 63.6118 52.9479 57.1776 52.9479 49.2376C52.9479 41.2984 59.5508 34.8642 67.689 34.8642ZM67.689 43.1276C70.8847 43.1276 73.4706 45.8658 73.4706 49.2376C73.4706 52.6131 70.8847 55.3474 67.689 55.3474C64.4971 55.3474 61.9103 52.6131 61.9103 49.2376C61.9103 45.8658 64.4971 43.1276 67.689 43.1276ZM43.6718 22.8602H45.7533C48.1543 22.8602 50.119 24.8289 50.119 27.2277V28.3035C50.119 30.7021 48.1494 32.6701 45.7533 32.6701H43.6718C41.2678 32.6701 39.3012 30.705 39.3012 28.3035V27.2277C39.3012 24.8262 41.2678 22.8602 43.6718 22.8602ZM43.7471 35.5232H45.6741C48.1166 35.5232 50.119 37.524 50.119 39.9643V58.5834C50.119 61.0264 48.1166 63.03 45.6741 63.03H43.7471C41.3026 63.03 39.3012 61.0264 39.3012 58.5834V39.9643C39.3012 37.524 41.3026 35.5232 43.7471 35.5232Z" fill="white"/>
</svg>
