<svg width="88" height="88" viewBox="0 0 88 88" fill="none" xmlns="http://www.w3.org/2000/svg">
<rect x="0.74353" width="86.8718" height="88" rx="10" fill="white"/>
<path fill-rule="evenodd" clip-rule="evenodd" d="M28.6867 46.6571C30.0048 47.9753 31.7921 48.7167 33.6562 48.7188C35.5204 48.7167 37.3077 47.9753 38.6258 46.6571C39.944 45.3389 40.6855 43.5517 40.6875 41.6875V29.0312C40.6875 27.9124 40.243 26.8393 39.4519 26.0481C38.6607 25.257 37.5876 24.8125 36.4688 24.8125C35.3499 24.8125 34.2768 25.257 33.4856 26.0481C32.6945 26.8393 32.25 27.9124 32.25 29.0312V43.0938H35.0625V29.0312C35.0625 28.6583 35.2107 28.3006 35.4744 28.0369C35.7381 27.7732 36.0958 27.625 36.4688 27.625C36.8417 27.625 37.1994 27.7732 37.4631 28.0369C37.7268 28.3006 37.875 28.6583 37.875 29.0312V41.6875C37.875 42.8064 37.4305 43.8794 36.6394 44.6706C35.8482 45.4618 34.7751 45.9062 33.6562 45.9062C32.5374 45.9062 31.4643 45.4618 30.6731 44.6706C29.882 43.8794 29.4375 42.8064 29.4375 41.6875V26.2188H26.625V41.6875C26.627 43.5517 27.3685 45.3389 28.6867 46.6571ZM57.5625 64.1875H36.4688C35.7231 64.1866 35.0082 63.8901 34.481 63.3628C33.9537 62.8355 33.6571 62.1207 33.6562 61.375V52.9375H36.4688V61.375H57.5625V30.4375H44.9062V27.625H57.5625C58.3082 27.6259 59.023 27.9224 59.5503 28.4497C60.0776 28.977 60.3741 29.6918 60.375 30.4375V61.375C60.3741 62.1207 60.0776 62.8355 59.5503 63.3628C59.023 63.8901 58.3082 64.1866 57.5625 64.1875ZM54.75 36.0625H44.9062V38.875H54.75V36.0625ZM43.5 43.0938H54.75V45.9062H43.5V43.0938ZM54.75 50.125H42.0938V52.9375H54.75V50.125Z" fill="#1DD3B0"/>
</svg>
