<svg width="88" height="88" viewBox="0 0 88 88" fill="none" xmlns="http://www.w3.org/2000/svg">
<rect x="0.74353" width="86.8718" height="88" rx="10" fill="white"/>
<path opacity="0.2" d="M44 56.1875C49.1777 56.1875 53.375 51.9902 53.375 46.8125C53.375 41.6348 49.1777 37.4375 44 37.4375C38.8223 37.4375 34.625 41.6348 34.625 46.8125C34.625 51.9902 38.8223 56.1875 44 56.1875Z" fill="#1DD3B0"/>
<path opacity="0.2" d="M28.0625 41.1875C32.2046 41.1875 35.5625 37.8296 35.5625 33.6875C35.5625 29.5454 32.2046 26.1875 28.0625 26.1875C23.9204 26.1875 20.5625 29.5454 20.5625 33.6875C20.5625 37.8296 23.9204 41.1875 28.0625 41.1875Z" fill="#1DD3B0"/>
<path opacity="0.2" d="M59.9375 41.1875C64.0796 41.1875 67.4375 37.8296 67.4375 33.6875C67.4375 29.5454 64.0796 26.1875 59.9375 26.1875C55.7954 26.1875 52.4375 29.5454 52.4375 33.6875C52.4375 37.8296 55.7954 41.1875 59.9375 41.1875Z" fill="#1DD3B0"/>
<path d="M44 56.1875C49.1777 56.1875 53.375 51.9902 53.375 46.8125C53.375 41.6348 49.1777 37.4375 44 37.4375C38.8223 37.4375 34.625 41.6348 34.625 46.8125C34.625 51.9902 38.8223 56.1875 44 56.1875Z" stroke="#1DD3B0" stroke-width="2" stroke-linecap="round" stroke-linejoin="round"/>
<path d="M59.9375 41.1875C62.1209 41.1857 64.2746 41.6931 66.2276 42.6694C68.1805 43.6456 69.8789 45.0639 71.1878 46.8115" stroke="#1DD3B0" stroke-width="2" stroke-linecap="round" stroke-linejoin="round"/>
<path d="M16.8119 46.812C18.1207 45.0643 19.8192 43.6459 21.7722 42.6695C23.7252 41.6931 25.8791 41.1857 28.0626 41.1875" stroke="#1DD3B0" stroke-width="2" stroke-linecap="round" stroke-linejoin="round"/>
<path d="M30.5081 64.6248C31.7397 62.095 33.6579 59.9624 36.0435 58.4705C38.4292 56.9786 41.1862 56.1875 44 56.1875C46.8137 56.1875 49.5708 56.9786 51.9564 58.4705C54.3421 59.9623 56.2602 62.0949 57.4919 64.6247" stroke="#1DD3B0" stroke-width="2" stroke-linecap="round" stroke-linejoin="round"/>
<path d="M28.0624 41.1875C26.6394 41.1872 25.2458 40.7821 24.0444 40.0195C22.843 39.2568 21.8833 38.1681 21.2775 36.8805C20.6717 35.5929 20.4446 34.1595 20.623 32.7476C20.8013 31.3358 21.3776 30.0039 22.2846 28.9073C23.1916 27.8108 24.3918 26.9949 25.7451 26.5549C27.0984 26.115 28.549 26.0691 29.9274 26.4227C31.3058 26.7763 32.5552 27.5147 33.5296 28.5518C34.504 29.5889 35.1633 30.8817 35.4305 32.2795" stroke="#1DD3B0" stroke-width="2" stroke-linecap="round" stroke-linejoin="round"/>
<path d="M52.5695 32.2796C52.8365 30.8816 53.4957 29.5885 54.4702 28.5512C55.4447 27.5139 56.6942 26.7753 58.0727 26.4216C59.4513 26.0678 60.9021 26.1136 62.2556 26.5536C63.6091 26.9936 64.8095 27.8095 65.7166 28.9062C66.6237 30.0029 67.2001 31.335 67.3784 32.7471C67.5567 34.1591 67.3297 35.5927 66.7237 36.8804C66.1177 38.1682 65.1578 39.257 63.9562 40.0197C62.7546 40.7823 61.3608 41.1874 59.9375 41.1875" stroke="#1DD3B0" stroke-width="2" stroke-linecap="round" stroke-linejoin="round"/>
</svg>
